name analog
datacolumns 19
datarows 25
range 0.0 0.012
endheader
time	ground_force_vx	ground_force_vy	ground_force_vz	ground_force_px	ground_force_py	ground_force_pz	l_ground_force_vx	l_ground_force_vy	l_ground_force_vz	l_ground_force_px	l_ground_force_py	l_ground_force_pz	ground_torque_x	ground_torque_y	ground_torque_z	l_ground_torque_x	l_ground_torque_y	l_ground_torque_z
0.0	-0.0	-0.0	-0.0	-9.277259826660156	15.776081085205078	-789.7304077148438	-0.0	-0.0	-0.0	-0.0	-0.0	-0.0	-0.0	-0.0	-0.0	-0.0	-0.0	-0.0
0.0005	-0.0	-0.0	-0.0	-8.83384895324707	15.601834297180176	-790.0687866210938	-0.0	-0.0	-0.0	-0.0	-0.0	-0.0	-0.0	-0.0	-0.0	-0.0	-0.0	-0.0
0.001	-0.0	-0.0	-0.0	-8.654831886291504	15.775375366210938	-790.4363403320312	-0.0	-0.0	-0.0	-0.0	-0.0	-0.0	-0.0	-0.0	-0.0	-0.0	-0.0	-0.0
0.0015	-0.0	-0.0	-0.0	-8.120351791381836	16.126022338867188	-788.662353515625	-0.0	-0.0	-0.0	-0.0	-0.0	-0.0	-0.0	-0.0	-0.0	-0.0	-0.0	-0.0
0.002	-0.0	-0.0	-0.0	-7.766692161560059	15.33273220062256	-789.36328125	-0.0	-0.0	-0.0	-0.0	-0.0	-0.0	-0.0	-0.0	-0.0	-0.0	-0.0	-0.0
0.0025	-0.0	-0.0	-0.0	-7.849720001220703	15.329625129699709	-791.8167114257812	-0.0	-0.0	-0.0	-0.0	-0.0	-0.0	-0.0	-0.0	-0.0	-0.0	-0.0	-0.0
0.003	-0.0	-0.0	-0.0	-6.429771423339844	15.062211990356444	-793.9288330078125	-0.0	-0.0	-0.0	-0.0	-0.0	-0.0	-0.0	-0.0	-0.0	-0.0	-0.0	-0.0
0.0035	-0.0	-0.0	-0.0	-6.689062118530273	14.971320152282717	-791.8602294921875	-0.0	-0.0	-0.0	-0.0	-0.0	-0.0	-0.0	-0.0	-0.0	-0.0	-0.0	-0.0
0.004	-0.0	-0.0	-0.0	-6.334846019744873	14.079907417297363	-796.4065551757812	-0.0	-0.0	-0.0	-0.0	-0.0	-0.0	-0.0	-0.0	-0.0	-0.0	-0.0	-0.0
0.0045000000000000005	-0.0	-0.0	-0.0	-6.4212846755981445	13.19878101348877	-798.5471801757812	-0.0	-0.0	-0.0	-0.0	-0.0	-0.0	-0.0	-0.0	-0.0	-0.0	-0.0	-0.0
0.005	-0.0	-0.0	-0.0	-6.241851329803467	13.362835884094238	-798.5474243164062	-0.0	-0.0	-0.0	-0.0	-0.0	-0.0	-0.0	-0.0	-0.0	-0.0	-0.0	-0.0
0.0055	-0.0	-0.0	-0.0	-5.362610340118408	12.835774421691896	-802.08349609375	-0.0	-0.0	-0.0	-0.0	-0.0	-0.0	-0.0	-0.0	-0.0	-0.0	-0.0	-0.0
0.006	-0.0	-0.0	-0.0	-5.974000930786133	11.769347190856934	-803.1148681640625	-0.0	-0.0	-0.0	-0.0	-0.0	-0.0	-0.0	-0.0	-0.0	-0.0	-0.0	-0.0
0.006500000000000001	-0.0	-0.0	-0.0	-5.266600608825684	10.8823823928833	-803.484375	-0.0	-0.0	-0.0	-0.0	-0.0	-0.0	-0.0	-0.0	-0.0	-0.0	-0.0	-0.0
0.007	-0.0	-0.0	-0.0	-4.814077854156494	10.700030326843262	-805.9566650390625	-0.0	-0.0	-0.0	-0.0	-0.0	-0.0	-0.0	-0.0	-0.0	-0.0	-0.0	-0.0
0.0075	-0.0	-0.0	-0.0	-3.8405838012695312	11.051037788391112	-808.0532836914062	-0.0	-0.0	-0.0	-0.0	-0.0	-0.0	-0.0	-0.0	-0.0	-0.0	-0.0	-0.0
0.008	-0.0	-0.0	-0.0	-2.9439468383789062	11.404061317443848	-808.43798828125	-0.0	-0.0	-0.0	-0.0	-0.0	-0.0	-0.0	-0.0	-0.0	-0.0	-0.0	-0.0
0.0085	-0.0	-0.0	-0.0	-2.1374671459198	10.789554595947266	-809.4884033203125	-0.0	-0.0	-0.0	-0.0	-0.0	-0.0	-0.0	-0.0	-0.0	-0.0	-0.0	-0.0
0.009000000000000001	-0.0	-0.0	-0.0	-1.1523479223251345	11.317100524902344	-809.1644897460938	-0.0	-0.0	-0.0	-0.0	-0.0	-0.0	-0.0	-0.0	-0.0	-0.0	-0.0	-0.0
0.0095	-0.0	-0.0	-0.0	-0.0829424560070037	11.757698059082031	-810.209716796875	-0.7007946372032166	-1.221011519432068	-21.37618064880371	-0.0	-0.0	-0.0	-0.0	-0.0	-0.0	7449.19189453125	-1297.075927734375	87.06859588623047
0.01	-0.0	-0.0	-0.0	1.504968285560608	12.114001274108888	-812.2933959960938	-0.3548431396484375	-1.1504671573638916	-20.95361328125	-0.0	-0.0	-0.0	-0.0	-0.0	-0.0	7934.5595703125	-1180.0013427734375	89.5988540649414
0.0105	-0.0	-0.0	-0.0	2.142378807067871	12.025978088378906	-811.61279296875	-0.4459217488765716	-1.4060746431350708	-22.34104347229004	-0.0	-0.0	-0.0	-0.0	-0.0	-0.0	8083.47607421875	-1473.28857421875	119.96131896972656
0.011	-0.0	-0.0	-0.0	2.854736328125	11.680136680603027	-811.2489013671875	-0.3512139320373535	-1.065882444381714	-23.034482955932617	-0.0	-0.0	-0.0	-0.0	-0.0	-0.0	8331.966796875	-1582.633544921875	294.90631103515625
0.0115	-0.0	-0.0	-0.0	3.388610601425171	11.677470207214355	-811.2322998046875	-0.1836507022380828	-1.1444607973098757	-22.00145530700684	-0.0	-0.0	-0.0	-0.0	-0.0	-0.0	8726.251953125	-1458.8724365234375	294.9693298339844
0.012	-0.0	-0.0	-0.0	4.191468715667725	12.114615440368652	-809.13525390625	-0.0887107849121093	-1.0687952041625977	-23.049053192138672	-0.0	-0.0	-0.0	-0.0	-0.0	-0.0	8925.607421875	-1686.04541015625	294.59100341796875
